<?xml version="1.0" standalone="no"?>
<!DOCTYPE svg PUBLIC "-//W3C//DTD SVG 20010904//EN"
 "http://www.w3.org/TR/2001/REC-SVG-20010904/DTD/svg10.dtd">
<svg version="1.0" xmlns="http://www.w3.org/2000/svg"
 width="367.000000pt" height="367.000000pt" viewBox="0 0 367.000000 367.000000"
 preserveAspectRatio="xMidYMid meet">
<metadata>
Created by potrace 1.11, written by Peter Selinger 2001-2013
</metadata>
<g transform="translate(0.000000,367.000000) scale(0.100000,-0.100000)"
fill="#000000" stroke="none">
<path d="M1575 3635 c-780 -126 -1368 -684 -1533 -1454 -24 -116 -26 -145 -26
-351 0 -206 2 -235 26 -351 140 -651 588 -1161 1207 -1374 219 -75 492 -112
699 -94 750 64 1366 539 1607 1238 75 219 112 492 94 699 -71 836 -649 1495
-1463 1668 -154 33 -465 42 -611 19z m-33 -553 c10 -20 29 -55 43 -77 l24 -40
1 58 c0 68 9 67 46 -5 52 -103 94 -256 104 -381 6 -65 8 -128 5 -140 -2 -12 1
-65 8 -117 l13 -95 7 140 c4 77 15 176 23 220 15 79 28 198 41 370 3 50 8 84
10 78 6 -18 23 -16 23 2 0 8 3 15 8 15 4 0 17 -48 29 -107 l22 -108 -20 -70
c-20 -74 -26 -280 -9 -320 7 -17 9 -16 9 10 2 55 31 202 56 282 14 43 33 117
41 166 9 48 19 87 23 87 6 0 35 -58 67 -135 8 -19 18 -35 22 -35 4 1 19 19 34
40 15 22 31 40 36 40 4 0 9 -38 11 -84 l2 -85 -49 -64 c-80 -105 -128 -202
-170 -347 -22 -74 -43 -144 -47 -155 -6 -16 -5 -17 4 -5 6 8 23 53 37 100 38
124 124 293 194 380 33 41 76 101 94 133 l33 58 7 -47 c3 -26 6 -61 6 -79 l0
-32 50 25 c28 14 53 23 55 20 2 -2 -14 -39 -36 -81 -22 -42 -36 -77 -31 -77
12 0 90 56 130 93 17 17 32 28 32 23 0 -9 -28 -102 -40 -132 -7 -19 -5 -20 42
-14 27 4 51 3 54 -2 7 -11 -116 -155 -139 -163 -10 -4 -16 -9 -14 -12 3 -2 42
16 87 42 45 26 84 44 87 41 3 -3 -5 -20 -18 -38 -13 -18 -32 -49 -43 -68 -10
-19 -27 -46 -36 -60 l-19 -25 92 -30 c105 -35 124 -55 50 -55 -77 0 -82 -14
-11 -35 35 -10 67 -22 72 -26 5 -4 -17 -15 -49 -24 -50 -15 -55 -18 -38 -30
18 -12 93 -38 146 -49 41 -10 25 -23 -38 -31 -38 -4 -55 -11 -55 -21 0 -8 -9
-14 -21 -14 -13 0 -18 -4 -13 -12 4 -7 -7 -2 -25 11 -18 13 -35 21 -37 18 -3
-3 4 -10 15 -16 24 -13 101 -114 101 -132 0 -8 -13 -10 -42 -6 -31 4 -50 14
-68 35 -14 16 -43 44 -65 63 -35 30 -34 27 13 -24 28 -32 52 -63 52 -69 0 -5
9 -23 20 -38 11 -16 23 -49 27 -75 l6 -46 -328 167 c-360 183 -360 183 -360
103 0 -59 -24 -71 -127 -66 -87 5 -108 16 -108 58 0 22 -7 32 -26 41 -29 13
-116 -15 -511 -165 -123 -47 -223 -81 -223 -76 0 20 45 99 60 104 9 3 23 18
33 34 l17 29 -45 19 c-51 21 -55 29 -20 45 24 11 34 28 18 28 -5 1 -23 14 -41
29 l-33 28 98 22 c54 13 163 43 243 68 80 25 168 49 195 53 48 7 46 8 -28 9
-44 0 -122 -8 -175 -18 -54 -11 -138 -23 -188 -27 l-91 -6 -36 66 c-20 38 -30
66 -23 66 7 0 16 -4 22 -10 5 -5 38 -17 74 -26 55 -14 95 -16 250 -10 111 3
199 2 220 -4 62 -18 43 -2 -22 18 -74 23 -174 38 -311 47 -53 4 -103 12 -110
18 -6 7 -31 25 -55 40 -45 29 -47 47 -5 47 20 0 24 4 18 18 -15 37 -26 84 -21
90 3 3 16 -4 29 -15 35 -32 75 -49 172 -71 123 -29 239 -65 305 -94 47 -21 75
-40 170 -112 27 -21 -30 51 -65 82 -71 63 -242 131 -385 153 -81 12 -134 30
-162 56 -14 13 -18 32 -18 90 0 40 4 73 8 73 5 0 21 -14 37 -30 44 -46 100
-75 221 -115 142 -48 210 -85 291 -159 89 -81 50 -24 -57 84 -87 88 -146 129
-206 145 -32 8 -58 28 -118 92 -42 45 -73 84 -68 87 5 3 40 -3 78 -14 73 -20
84 -19 64 4 -9 12 -9 30 0 86 6 38 16 70 21 70 5 0 9 -6 9 -12 0 -7 14 -42 32
-78 24 -48 59 -92 132 -165 55 -55 122 -129 149 -165 27 -36 51 -67 53 -69 1
-2 -3 14 -9 35 -7 23 -37 65 -77 107 -130 136 -176 235 -168 357 3 37 9 73 13
80 13 21 80 -136 94 -218 13 -86 33 -127 96 -202 25 -30 54 -77 65 -105 10
-27 19 -43 19 -34 2 41 -100 294 -144 361 -34 51 -43 76 -55 155 -10 63 -6
123 8 123 4 0 15 -17 24 -38z m-723 -2244 c1 -28 -2 -38 -14 -38 -8 0 -15 9
-15 20 0 26 -39 43 -58 26 -19 -18 -6 -39 44 -75 37 -27 44 -38 44 -66 0 -48
-22 -65 -80 -63 -48 2 -48 2 -52 40 -2 21 -1 38 1 38 3 0 16 -14 31 -32 18
-22 32 -29 43 -25 37 14 31 38 -22 87 -55 51 -63 78 -32 109 13 13 33 19 63
19 44 -1 44 -1 47 -40z m269 36 c25 -7 30 -24 7 -24 -12 0 -15 -15 -15 -73 0
-103 34 -144 82 -100 26 23 27 157 1 172 -10 5 -15 13 -11 16 11 11 208 5 230
-6 31 -17 50 -56 50 -105 0 -39 -5 -52 -31 -78 -27 -27 -39 -31 -101 -34 -43
-3 -70 0 -70 6 0 5 7 12 15 16 22 8 22 181 0 190 -36 14 -45 -3 -45 -90 0 -73
-3 -86 -22 -104 -28 -26 -82 -26 -108 0 -17 17 -20 33 -20 104 0 65 -3 85 -15
90 -11 4 -15 -1 -15 -19 0 -34 -15 -39 -28 -10 -7 14 -18 25 -27 25 -12 0 -15
-17 -15 -95 0 -78 3 -95 15 -95 8 0 15 -4 15 -10 0 -5 -22 -10 -50 -10 -48 0
-66 12 -35 24 12 4 15 25 15 96 0 82 -2 91 -17 88 -10 -2 -22 -13 -28 -26 -14
-32 -25 -27 -25 13 l0 34 98 4 c53 1 104 4 112 5 8 1 25 -1 38 -4z m802 -29
c0 -31 -20 -43 -27 -16 -4 17 -13 21 -45 21 -39 0 -39 0 -36 -37 2 -30 7 -37
26 -38 13 -1 27 6 33 17 15 28 29 12 29 -33 0 -39 -15 -53 -26 -24 -4 9 -19
15 -35 15 -26 0 -29 -3 -29 -34 0 -19 7 -41 15 -50 25 -24 17 -31 -30 -28 -45
4 -58 15 -30 26 12 4 15 25 15 96 0 73 -3 90 -15 90 -17 0 -21 16 -5 22 5 2
43 2 85 0 71 -3 75 -5 75 -27z m152 15 c14 -10 27 -17 30 -15 5 6 7 -2 14 -70
9 -94 -47 -152 -127 -129 -74 21 -93 150 -30 206 37 33 78 36 113 8z m577 5
c3 -3 0 -9 -6 -13 -9 -6 -9 -20 2 -57 25 -82 26 -83 41 -35 18 60 18 66 -8 90
-12 11 -20 21 -17 21 2 1 23 3 47 4 31 2 42 -1 42 -11 0 -8 -6 -14 -14 -14
-11 0 -10 -14 7 -71 l21 -72 18 64 c13 44 16 69 9 80 -8 14 -5 18 14 21 35 7
55 -7 34 -24 -9 -7 -29 -57 -45 -110 -15 -54 -31 -95 -34 -92 -3 3 -14 33 -26
67 l-21 62 -18 -60 c-10 -33 -22 -64 -25 -68 -4 -5 -22 36 -40 90 -40 121 -53
140 -61 92 l-6 -34 -11 28 c-7 17 -19 27 -32 27 -18 0 -20 -6 -20 -79 0 -89 5
-111 27 -111 8 0 11 -4 8 -10 -8 -12 -95 -13 -95 -1 0 5 7 14 15 21 11 9 15
34 15 96 0 77 -2 84 -20 84 -11 0 -20 -4 -20 -8 0 -5 -7 -17 -15 -28 -13 -18
-14 -17 -15 18 l0 37 93 3 c104 3 147 1 156 -7z m345 5 c58 -22 84 -120 48
-180 -23 -38 -43 -49 -85 -50 -29 0 -45 7 -68 29 -25 26 -29 37 -29 86 0 51 3
60 34 91 35 35 57 41 100 24z m-1434 -10 c0 -5 -5 -10 -10 -10 -11 0 14 -55
29 -64 16 -10 43 55 30 70 -9 11 -4 14 30 14 45 0 52 -9 22 -27 -24 -15 -71
-99 -71 -128 0 -34 10 -55 27 -55 8 0 11 -4 8 -10 -8 -12 -95 -13 -95 -1 0 5
7 11 15 15 26 9 18 75 -15 134 -17 28 -37 52 -45 52 -8 0 -15 5 -15 10 0 6 20
10 45 10 25 0 45 -4 45 -10z m720 -9 c17 -33 12 -68 -14 -89 l-25 -19 32 -39
c17 -21 35 -40 39 -42 17 -8 7 -22 -16 -22 -17 0 -33 14 -61 55 -21 30 -40 55
-42 55 -1 0 -3 -20 -3 -45 0 -34 4 -45 16 -45 8 0 12 -4 9 -10 -7 -11 -78 -14
-88 -4 -3 3 2 13 11 22 13 13 17 35 16 96 0 52 -5 81 -12 84 -7 2 -12 8 -12
13 0 5 31 9 70 9 58 0 71 -3 80 -19z"/>
<path d="M1634 2822 c8 -27 17 -56 22 -64 5 -7 19 -49 31 -93 l23 -80 -4 60
c-2 36 -17 90 -35 134 -37 91 -55 111 -37 43z"/>
<path d="M1848 2510 c-12 -84 -8 -385 3 -336 5 22 8 119 7 215 -2 129 -5 161
-10 121z"/>
<path d="M2098 2162 c-9 -4 18 -7 60 -8 72 -1 187 -21 246 -44 43 -16 29 -2
-18 18 -82 37 -236 55 -288 34z"/>
<path d="M1445 2131 c-21 -5 2 -9 80 -13 61 -2 119 -8 130 -12 11 -4 7 0 -9 9
-31 19 -154 28 -201 16z"/>
<path d="M2045 2121 c-20 -4 19 -9 115 -14 80 -3 156 -9 170 -12 14 -2 5 2
-20 11 -49 17 -218 27 -265 15z"/>
<path d="M1403 2099 c-104 -17 -253 -92 -312 -157 -53 -59 -64 -72 -60 -72 3
0 23 16 44 36 99 90 331 181 473 185 33 1 34 2 12 9 -32 10 -91 10 -157 -1z"/>
<path d="M2119 2045 c69 -40 304 -156 307 -152 7 7 -164 103 -249 139 -101 44
-120 48 -58 13z"/>
<path d="M2290 2068 c9 -9 140 -67 140 -63 0 6 -89 51 -120 60 -14 4 -23 5
-20 3z"/>
<path d="M1403 2036 c-71 -20 -253 -99 -253 -111 0 -2 17 2 38 10 20 7 105 38
187 69 156 57 168 70 28 32z"/>
<path d="M2235 2027 c39 -19 96 -50 128 -71 31 -20 63 -34 69 -30 6 4 8 3 5
-3 -4 -6 21 -30 56 -53 60 -41 59 -31 -3 28 -45 42 -159 113 -213 131 -95 33
-113 32 -42 -2z"/>
<path d="M2385 1994 c33 -19 80 -52 105 -72 26 -21 37 -26 25 -12 -22 26 -162
120 -178 120 -6 0 16 -16 48 -36z"/>
<path d="M1297 843 c-10 -9 -9 -171 1 -176 18 -11 77 19 90 46 17 35 8 91 -19
118 -19 19 -59 26 -72 12z"/>
<path d="M1955 836 c-35 -35 -36 -113 -1 -153 21 -24 27 -26 52 -18 21 7 33
21 41 47 31 96 -33 183 -92 124z"/>
<path d="M2903 850 c-56 -23 -48 -164 11 -185 25 -8 31 -6 53 20 22 25 25 36
21 83 -4 42 -10 60 -28 74 -25 20 -26 20 -57 8z"/>
<path d="M2160 810 c0 -36 3 -40 25 -40 20 0 45 24 45 44 0 12 -33 36 -51 36
-16 0 -19 -7 -19 -40z"/>
</g>
</svg>
